<svg width="176" height="24" viewBox="0 0 176 24" fill="none" xmlns="http://www.w3.org/2000/svg">
<g clip-path="url(#clip0_620_1845)">
<path d="M23.9994 10.504V13.496C23.9994 13.624 23.8954 13.728 23.7675 13.736C18.3115 13.904 13.9035 18.312 13.7355 23.7679C13.7355 23.8959 13.6235 23.9999 13.4955 23.9999H10.5115C10.3755 23.9999 10.2715 23.8879 10.2715 23.7599C10.3835 18.9359 13.0475 14.48 17.2635 12.072L17.3835 12L17.2635 11.928C13.0395 9.51998 10.3835 5.06399 10.2715 0.239999C10.2715 0.104 10.3755 0 10.5115 0H13.4955C13.6235 0 13.7275 0.104 13.7355 0.231999C13.9035 5.68798 18.3115 10.096 23.7675 10.264C23.8954 10.264 23.9994 10.376 23.9994 10.504Z" fill="#D7FF1F"/>
<path d="M10.7358 15.5037C10.7998 15.5837 10.8078 15.6957 10.7518 15.7837C10.6558 15.9357 10.5678 16.0877 10.4798 16.2397C9.97579 17.1117 9.55979 18.0317 9.23179 18.9837C9.18379 19.1117 9.00779 19.1277 8.94379 19.0077C8.10379 17.5197 6.91179 16.2637 5.4558 15.3357C3.8878 14.3437 2.09581 13.7917 0.239812 13.7357C0.111812 13.7357 0.0078125 13.6237 0.0078125 13.4957V10.5037C0.0078125 10.3757 0.111812 10.2717 0.239812 10.2637C2.09581 10.2077 3.8878 9.65575 5.4558 8.66375C6.90379 7.74375 8.10379 6.47976 8.94379 4.99176C9.01579 4.87176 9.19179 4.88776 9.23179 5.01576C9.55979 5.96776 9.97579 6.88775 10.4798 7.75975C10.5678 7.91175 10.6638 8.06375 10.7518 8.21575C10.8078 8.30375 10.7998 8.41575 10.7358 8.49575C9.62379 9.89575 8.27979 11.0477 6.72779 11.9277L6.6078 11.9997L6.72779 12.0717C8.27979 12.9517 9.63179 14.1037 10.7358 15.5037Z" fill="#D7FF1F"/>
</g>
<path d="M32.9056 5.74306V18.6002H29.9999V5.74306H32.9056Z" fill="#F4F3F0"/>
<path d="M37.6007 8.85448L37.9607 11.0402C38.3664 10.2516 38.915 9.64591 39.6064 9.22305C40.3035 8.8002 41.0807 8.58877 41.9378 8.58877C42.8578 8.58877 43.6435 8.77448 44.295 9.14591C44.9521 9.51162 45.4521 10.0402 45.795 10.7316C46.1378 11.4173 46.3092 12.2316 46.3092 13.1745V18.6002H43.4464V13.6116C43.4464 12.743 43.2321 12.0802 42.8035 11.623C42.3807 11.1659 41.7693 10.9373 40.9693 10.9373C40.4093 10.9373 39.9207 11.0602 39.5036 11.3059C39.0921 11.5459 38.7721 11.8888 38.5436 12.3345C38.3207 12.7745 38.2093 13.2888 38.2093 13.8773V18.6002H35.3464V12.1288L34.7293 8.85448H37.6007Z" fill="#F4F3F0"/>
<path d="M54.6534 7.31163C53.8534 7.31163 53.2762 7.46877 52.9219 7.78306C52.5677 8.09163 52.3905 8.59448 52.3905 9.29162V9.59162H56.6076V11.743H52.3905V18.6002H49.5277V11.743H47.4962V9.59162H49.5277V9.4802C49.5277 8.57734 49.7048 7.80306 50.0591 7.15735C50.4134 6.50592 50.9477 6.00878 51.6619 5.66592C52.3762 5.31735 53.2591 5.14307 54.3105 5.14307C54.7791 5.14307 55.2048 5.17735 55.5877 5.24592C55.9762 5.31449 56.3876 5.41735 56.8219 5.55449V7.71449C56.1591 7.44592 55.4362 7.31163 54.6534 7.31163Z" fill="#F4F3F0"/>
<path d="M63.105 18.8573C61.905 18.8573 60.8422 18.643 59.9165 18.2145C58.9965 17.7859 58.2822 17.1859 57.7736 16.4145C57.2651 15.6373 57.0108 14.743 57.0108 13.7316C57.0108 12.7145 57.2651 11.8173 57.7736 11.0402C58.2822 10.2631 58.9965 9.6602 59.9165 9.23163C60.8422 8.80305 61.905 8.58877 63.105 8.58877C64.305 8.58877 65.365 8.80305 66.285 9.23163C67.2107 9.6602 67.9279 10.2631 68.4364 11.0402C68.945 11.8173 69.1993 12.7145 69.1993 13.7316C69.1993 14.743 68.945 15.6373 68.4364 16.4145C67.9279 17.1859 67.2107 17.7859 66.285 18.2145C65.365 18.643 64.305 18.8573 63.105 18.8573ZM59.9079 13.7316C59.9079 14.3373 60.0365 14.863 60.2936 15.3087C60.5508 15.7487 60.9193 16.0887 61.3993 16.3287C61.8793 16.5687 62.4479 16.6887 63.105 16.6887C63.7622 16.6887 64.3279 16.5687 64.8022 16.3287C65.2822 16.0887 65.6507 15.7487 65.9079 15.3087C66.165 14.863 66.2936 14.3373 66.2936 13.7316C66.2936 13.1259 66.165 12.6002 65.9079 12.1545C65.6507 11.7088 65.2822 11.3659 64.8022 11.1259C64.3222 10.8859 63.7565 10.7659 63.105 10.7659C62.4479 10.7659 61.8793 10.8859 61.3993 11.1259C60.9193 11.3659 60.5508 11.7088 60.2936 12.1545C60.0365 12.6002 59.9079 13.1259 59.9079 13.7316Z" fill="#F4F3F0"/>
<path d="M73.2513 8.85448L73.6884 11.4859C74.0027 10.583 74.4599 9.87448 75.0599 9.3602C75.6599 8.84591 76.4113 8.58877 77.3141 8.58877C77.7427 8.58877 78.1684 8.6402 78.5913 8.74305V11.2116C78.0256 11.0802 77.4484 11.0145 76.8599 11.0145C76.277 11.0145 75.757 11.1373 75.2999 11.383C74.8427 11.6288 74.4827 12.0059 74.2199 12.5145C73.9627 13.0173 73.8342 13.643 73.8342 14.3916V18.6002H70.9713V12.0516L70.3542 8.85448H73.2513Z" fill="#F4F3F0"/>
<path d="M82.2992 8.85448L82.6506 10.9973C83.0449 10.2202 83.5649 9.62591 84.2106 9.21448C84.8621 8.79734 85.5878 8.58877 86.3878 8.58877C87.3363 8.58877 88.1335 8.80877 88.7792 9.24877C89.4306 9.68877 89.902 10.3145 90.1935 11.1259C90.582 10.3088 91.1049 9.68305 91.762 9.24877C92.4192 8.80877 93.1592 8.58877 93.982 8.58877C94.8506 8.58877 95.5963 8.77448 96.2192 9.14591C96.842 9.51162 97.3163 10.0402 97.642 10.7316C97.9677 11.4173 98.1306 12.2316 98.1306 13.1745V18.6002H95.2677V13.6116C95.2677 12.743 95.0763 12.0802 94.6935 11.623C94.3163 11.1659 93.7649 10.9373 93.0392 10.9373C92.5249 10.9373 92.0792 11.0602 91.702 11.3059C91.3249 11.5459 91.0335 11.8888 90.8278 12.3345C90.622 12.7745 90.5192 13.2888 90.5192 13.8773V18.6002H87.6563V13.6116C87.6563 12.743 87.4649 12.0802 87.0821 11.623C86.7049 11.1659 86.1535 10.9373 85.4278 10.9373C84.9135 10.9373 84.4678 11.0602 84.0906 11.3059C83.7135 11.5459 83.4221 11.8888 83.2164 12.3345C83.0106 12.7745 82.9078 13.2888 82.9078 13.8773V18.6002H80.0449V12.1288L79.4278 8.85448H82.2992Z" fill="#F4F3F0"/>
<path d="M108.839 16.4059C108.353 17.183 107.739 17.7859 106.996 18.2145C106.259 18.643 105.439 18.8573 104.536 18.8573C103.593 18.8573 102.753 18.643 102.016 18.2145C101.279 17.7859 100.704 17.183 100.293 16.4059C99.8873 15.6287 99.6844 14.7373 99.6844 13.7316C99.6844 12.7202 99.8873 11.8259 100.293 11.0488C100.704 10.2659 101.276 9.6602 102.007 9.23163C102.744 8.80305 103.587 8.58877 104.536 8.58877C105.439 8.58877 106.259 8.80305 106.996 9.23163C107.739 9.65448 108.356 10.2545 108.847 11.0316L109.096 8.85448H112.062L111.496 13.723L112.062 18.6002H109.096L108.839 16.4059ZM102.59 13.7316C102.59 14.2916 102.707 14.7916 102.942 15.2316C103.176 15.6716 103.499 16.0145 103.91 16.2602C104.327 16.5059 104.799 16.6287 105.324 16.6287C105.856 16.6287 106.362 16.5059 106.842 16.2602C107.322 16.0145 107.742 15.6745 108.102 15.2402C108.467 14.8002 108.753 14.2973 108.959 13.7316C108.753 13.1659 108.467 12.663 108.102 12.223C107.742 11.783 107.322 11.4402 106.842 11.1945C106.362 10.943 105.856 10.8173 105.324 10.8173C104.799 10.8173 104.327 10.943 103.91 11.1945C103.499 11.4402 103.176 11.7859 102.942 12.2316C102.707 12.6716 102.59 13.1716 102.59 13.7316Z" fill="#F4F3F0"/>
<path d="M116.384 8.85448L116.744 11.0402C117.15 10.2516 117.698 9.64591 118.39 9.22305C119.087 8.8002 119.864 8.58877 120.721 8.58877C121.641 8.58877 122.427 8.77448 123.078 9.14591C123.735 9.51162 124.235 10.0402 124.578 10.7316C124.921 11.4173 125.092 12.2316 125.092 13.1745V18.6002H122.23V13.6116C122.23 12.743 122.015 12.0802 121.587 11.623C121.164 11.1659 120.552 10.9373 119.752 10.9373C119.192 10.9373 118.704 11.0602 118.287 11.3059C117.875 11.5459 117.555 11.8888 117.327 12.3345C117.104 12.7745 116.992 13.2888 116.992 13.8773V18.6002H114.13V12.1288L113.513 8.85448H116.384Z" fill="#F4F3F0"/>
<path d="M138.295 14.623C138.192 15.4573 137.875 16.1945 137.343 16.8345C136.817 17.4745 136.132 17.9716 135.286 18.3259C134.44 18.6802 133.506 18.8573 132.483 18.8573C131.335 18.8573 130.315 18.643 129.423 18.2145C128.532 17.7802 127.837 17.1773 127.34 16.4059C126.849 15.6287 126.603 14.7373 126.603 13.7316C126.603 12.7259 126.849 11.8345 127.34 11.0573C127.837 10.2802 128.532 9.67448 129.423 9.2402C130.315 8.80591 131.335 8.58877 132.483 8.58877C133.506 8.58877 134.44 8.76591 135.286 9.1202C136.132 9.47448 136.817 9.97448 137.343 10.6202C137.875 11.2659 138.192 12.0059 138.295 12.8402H135.432C135.289 12.1888 134.952 11.6802 134.42 11.3145C133.895 10.9488 133.249 10.7659 132.483 10.7659C131.877 10.7659 131.349 10.883 130.897 11.1173C130.452 11.3516 130.106 11.6916 129.86 12.1373C129.62 12.583 129.5 13.1145 129.5 13.7316C129.5 14.343 129.62 14.8716 129.86 15.3173C130.106 15.763 130.452 16.103 130.897 16.3373C131.349 16.5716 131.877 16.6887 132.483 16.6887C132.986 16.6887 133.443 16.6059 133.855 16.4402C134.272 16.2687 134.615 16.0259 134.883 15.7116C135.157 15.3973 135.34 15.0345 135.432 14.623H138.295Z" fill="#F4F3F0"/>
<path d="M145.36 18.8573C144.206 18.8573 143.172 18.643 142.257 18.2145C141.343 17.7802 140.629 17.1745 140.115 16.3973C139.6 15.6145 139.343 14.7145 139.343 13.6973C139.343 12.6973 139.589 11.8116 140.08 11.0402C140.572 10.2631 141.255 9.6602 142.129 9.23163C143.003 8.80305 143.992 8.58877 145.095 8.58877C146.203 8.58877 147.169 8.83734 147.992 9.33448C148.814 9.82591 149.446 10.5288 149.886 11.443C150.332 12.3516 150.554 13.4116 150.554 14.623H142.412C142.629 15.2859 143.052 15.7973 143.68 16.1573C144.309 16.5173 145.106 16.6973 146.072 16.6973C146.809 16.6973 147.549 16.5916 148.292 16.3802C149.034 16.1687 149.7 15.8716 150.289 15.4887V17.4087C149.643 17.8659 148.892 18.223 148.035 18.4802C147.183 18.7316 146.292 18.8573 145.36 18.8573ZM147.769 12.7202C147.603 12.0745 147.289 11.5773 146.826 11.2288C146.369 10.8745 145.797 10.6973 145.112 10.6973C144.386 10.6973 143.777 10.8802 143.286 11.2459C142.8 11.6059 142.48 12.0973 142.326 12.7202H147.769Z" fill="#F4F3F0"/>
<path d="M170.747 18.6002H167.644L166.427 15.8916H159.296L158.079 18.6002H154.976L160.984 5.74306H164.739L170.747 18.6002ZM165.364 13.5259L162.861 7.9802L160.367 13.5259H165.364Z" fill="#F4F3F0"/>
<path d="M175.037 5.74306V18.6002H172.131V5.74306H175.037Z" fill="#F4F3F0"/>
<defs>
<clipPath id="clip0_620_1845">
<rect width="23.9999" height="23.9999" fill="white"/>
</clipPath>
</defs>
</svg>
